<?xml version="1.0" standalone="no"?><!DOCTYPE svg PUBLIC "-//W3C//DTD SVG 1.1//EN" "http://www.w3.org/Graphics/SVG/1.1/DTD/svg11.dtd"><svg t="1776779341971" class="icon" viewBox="0 0 1079 1024" version="1.1" xmlns="http://www.w3.org/2000/svg" p-id="16893" width="269.75" height="256" xmlns:xlink="http://www.w3.org/1999/xlink"><path d="M954.8673 303.931397c54.482208-84.875347 30.601884-198.390384-53.313241-253.498825a179.060681 179.060681 0 0 0-158.478514-19.246205l-0.041749-0.166995c-59.032829 19.287954-168.372984 79.531499-204.777954 136.226394a285.895907 285.895907 0 0 0 6.262323 317.666758l314.702592-106.501236c37.991425-12.566394 72.183707-37.866178 95.604794-74.438143" fill="#FBBC05" p-id="16894"></path><path d="M106.907053 688.271017c-54.690952 84.917096-30.72713 198.390384 53.521985 253.540573a180.354895 180.354895 0 0 0 159.062997 19.204457l0.083498 0.208744c59.199824-19.287954 169.040965-79.531499 205.571181-136.268143a284.977433 284.977433 0 0 0-6.262323-317.625009l-315.996805 106.459486v0.083498c-38.116671 12.524645-72.4342 37.824429-96.022282 74.396394z" fill="#4285F4" p-id="16895"></path><path d="M427.287484 347.391916a200.31083 200.31083 0 0 1-212.250992 187.535692A200.227332 200.227332 0 0 1 27.333805 322.927109a200.31083 200.31083 0 0 1 212.292741-187.535692A200.227332 200.227332 0 0 1 427.287484 347.391916" fill="#EB4335" p-id="16896"></path><path d="M1028.470466 676.247358a200.31083 200.31083 0 0 1-212.250992 187.493942 200.227332 200.227332 0 0 1-187.744435-212.000499 200.31083 200.31083 0 0 1 212.29274-187.535691 200.227332 200.227332 0 0 1 187.744436 212.042248" fill="#34A853" p-id="16897"></path></svg>